<?xml version="1.0" standalone="no"?>
<!DOCTYPE svg PUBLIC "-//W3C//DTD SVG 20010904//EN"
 "http://www.w3.org/TR/2001/REC-SVG-20010904/DTD/svg10.dtd">
<svg version="1.0" xmlns="http://www.w3.org/2000/svg"
 width="900.000000pt" height="638.000000pt" viewBox="0 0 900.000000 638.000000"
 preserveAspectRatio="xMidYMid meet">

<g transform="translate(0.000000,638.000000) scale(0.100000,-0.100000)"
fill="#000000" stroke="none">
<path d="M2202 3898 c-15 -15 -16 -70 0 -86 7 -7 25 -12 40 -12 27 0 163 -81
154 -91 -3 -3 -10 -63 -15 -134 -6 -72 -13 -158 -17 -193 l-6 -63 -19 25 c-10
13 -19 28 -19 33 0 4 -8 13 -18 20 -16 9 -18 8 -18 -9 1 -14 -10 -26 -31 -37
-35 -17 -51 -41 -28 -41 7 0 24 -14 36 -32 l23 -31 -38 -32 -38 -32 16 -31
c19 -38 25 -39 60 -11 41 32 55 11 15 -23 -19 -16 -27 -26 -19 -22 25 13 210
154 210 161 0 3 -12 -2 -26 -12 -16 -11 -30 -13 -36 -7 -6 6 27 37 89 85 54
41 139 107 188 146 50 39 96 69 103 66 15 -6 10 5 -25 53 -21 29 -26 31 -39
17 -8 -8 -43 -36 -76 -62 l-61 -46 6 48 c3 27 10 51 16 53 15 5 14 33 -1 30
-9 -2 -15 17 -19 57 -6 59 -6 59 -7 12 -2 -44 -3 -47 -22 -37 -11 6 -20 21
-20 34 0 13 -9 31 -20 41 -11 10 -20 26 -20 37 0 13 -7 18 -25 18 -18 0 -25
-5 -25 -20 0 -31 -28 -24 -94 23 -54 38 -64 50 -86 97 -9 19 -71 25 -88 8z
m76 -10 c28 -28 7 -78 -33 -78 -27 0 -45 18 -45 45 0 27 18 45 45 45 12 0 26
-5 33 -12z m104 -113 c35 -25 54 -45 49 -53 -4 -8 -30 4 -79 36 -54 36 -69 51
-60 60 13 13 13 13 90 -43z m128 -80 c0 -69 -3 -85 -15 -85 -12 0 -15 16 -15
85 0 69 3 85 15 85 12 0 15 -16 15 -85z m-40 -1 c0 -48 -13 -52 -24 -8 -6 22
6 54 20 54 2 0 4 -21 4 -46z m80 2 c0 -6 -7 -20 -15 -30 -14 -18 -15 -16 -15
30 1 45 2 48 15 30 8 -11 15 -25 15 -30z m-90 -53 c6 -7 10 -19 10 -28 0 -9 9
-15 25 -15 16 0 25 6 25 15 0 21 10 18 49 -15 l35 -30 -25 -27 c-14 -16 -65
-72 -114 -126 -48 -53 -89 -96 -91 -94 -2 1 3 81 11 177 8 96 15 184 15 195 1
20 4 17 60 -52z m156 -38 c-4 -16 -19 -12 -50 12 -18 15 -26 28 -22 39 5 13
11 12 40 -13 19 -15 33 -32 32 -38z m170 -53 c-5 -8 -454 -364 -518 -410 -15
-11 -19 -9 -31 14 l-14 27 266 208 c258 202 267 207 285 189 10 -10 16 -23 12
-28z m-186 -36 c0 -17 -16 -36 -57 -67 -99 -76 -100 -75 -24 9 40 45 75 82 77
82 2 0 4 -11 4 -24z m-267 -179 l25 -33 -34 -23 c-34 -23 -35 -24 -49 -5 -36
46 -36 51 -2 73 17 11 33 21 33 21 1 0 13 -15 27 -33z m56 -148 c-48 -42 -59
-46 -59 -25 0 18 80 77 93 69 6 -3 -10 -23 -34 -44z"/>
<path d="M6692 3898 c-7 -7 -12 -19 -12 -28 0 -19 -26 -44 -92 -88 -54 -37
-78 -41 -78 -12 0 15 -7 20 -25 20 -18 0 -25 -5 -25 -18 0 -11 -9 -27 -20 -37
-11 -10 -20 -28 -20 -41 0 -13 -9 -28 -20 -34 -19 -10 -20 -7 -22 37 -1 47 -1
47 -7 -12 -4 -40 -10 -59 -18 -57 -16 3 -17 -25 -2 -30 6 -2 13 -26 16 -53 l6
-48 -61 46 c-33 26 -68 54 -76 62 -13 14 -18 12 -39 -17 -35 -48 -40 -59 -25
-53 7 3 54 -27 103 -66 50 -39 134 -105 188 -146 62 -48 95 -79 89 -85 -6 -6
-20 -4 -36 7 -14 10 -26 15 -26 12 0 -7 185 -148 210 -161 8 -4 0 6 -19 22
-40 34 -26 55 15 23 35 -28 41 -27 60 11 l16 31 -38 32 -38 32 23 31 c12 18
29 32 36 32 23 0 7 24 -28 41 -21 11 -32 23 -31 37 0 17 -2 18 -18 9 -10 -7
-18 -16 -18 -20 0 -5 -9 -20 -19 -33 l-19 -25 -6 63 c-4 35 -11 121 -17 193
-5 71 -12 131 -15 134 -9 10 127 91 154 91 36 0 52 16 52 55 0 17 -5 36 -12
43 -7 7 -26 12 -43 12 -17 0 -36 -5 -43 -12z m76 -10 c7 -7 12 -21 12 -33 0
-12 -5 -26 -12 -33 -7 -7 -21 -12 -33 -12 -12 0 -26 5 -33 12 -7 7 -12 21 -12
33 0 12 5 26 12 33 7 7 21 12 33 12 12 0 26 -5 33 -12z m-140 -129 c-50 -33
-74 -45 -79 -37 -5 8 17 30 58 60 52 37 70 45 80 36 11 -9 -1 -21 -59 -59z
m-128 -64 c0 -69 -3 -85 -15 -85 -12 0 -15 16 -15 85 0 69 3 85 15 85 12 0 15
-16 15 -85z m-40 -2 c0 -47 0 -47 -16 -24 -13 18 -14 28 -5 47 16 35 21 30 21
-23z m75 -2 c-12 -49 -25 -47 -25 3 0 43 2 47 16 35 10 -8 13 -21 9 -38z m59
-181 c8 -101 14 -186 12 -187 -2 -2 -43 41 -91 94 -49 54 -100 110 -114 126
l-25 27 35 30 c39 33 49 36 49 15 0 -9 9 -15 25 -15 16 0 25 6 25 15 0 9 5 21
10 28 6 7 20 25 32 41 12 16 23 25 25 20 1 -5 9 -92 17 -194z m-155 137 c-1
-21 -59 -61 -71 -49 -7 7 0 19 23 40 33 30 50 33 48 9z m87 -284 l231 -180
-14 -27 c-12 -23 -16 -25 -31 -14 -62 45 -513 402 -518 410 -3 5 2 18 11 28
17 19 18 19 54 -9 20 -15 140 -109 267 -208z m-65 95 c76 -84 75 -85 -24 -9
-41 31 -57 50 -57 67 0 13 2 24 4 24 2 0 37 -37 77 -82z m256 -116 c24 -15 22
-23 -12 -66 -14 -19 -15 -18 -49 5 l-34 23 25 33 c14 18 30 30 37 26 6 -4 21
-13 33 -21z m-99 -140 c28 -21 44 -52 26 -52 -14 0 -93 73 -88 81 6 10 14 6
62 -29z"/>
<path d="M2807 3680 c10 -16 55 -83 100 -148 45 -66 80 -122 76 -125 -3 -4
-50 53 -105 126 -95 126 -132 171 -113 137 5 -8 49 -68 98 -134 49 -65 90
-125 91 -133 0 -8 -27 -30 -61 -49 l-61 -35 -33 47 c-27 40 -30 50 -20 67 17
27 7 20 -121 -80 l-106 -83 29 -31 c16 -17 29 -34 29 -38 0 -4 -15 -14 -33
-23 -34 -16 -34 -16 -53 15 -10 18 -17 36 -16 40 1 5 -4 5 -11 0 -21 -13 -207
-165 -207 -169 0 -2 5 -3 12 -2 6 2 13 -4 15 -13 6 -26 -84 -12 -125 19 -22
17 -36 21 -45 15 -57 -45 -237 -196 -237 -200 0 -6 21 6 42 25 14 12 30 13 84
5 l67 -10 449 250 c318 177 448 254 444 263 -8 21 -196 294 -203 294 -2 0 3
-13 14 -30z m-33 -295 c51 -80 57 -66 -48 -123 -51 -29 -98 -52 -103 -52 -12
0 -46 60 -38 68 16 17 161 131 166 131 4 1 14 -10 23 -24z m-260 -197 c9 -12
16 -26 16 -30 0 -3 -43 -30 -96 -59 -77 -41 -98 -49 -105 -38 -5 9 -3 19 4 26
23 23 152 122 159 123 4 0 14 -10 22 -22z m-258 -158 l44 -5 -94 -52 c-94 -53
-117 -58 -188 -47 l-37 6 91 75 91 74 24 -23 c14 -13 42 -24 69 -28z"/>
<path d="M6085 3570 c-52 -77 -98 -146 -101 -154 -4 -9 126 -86 444 -263 l449
-250 67 10 c54 8 70 7 84 -5 21 -19 42 -31 42 -25 0 4 -180 155 -237 200 -9 6
-23 2 -45 -15 -41 -31 -131 -45 -125 -19 2 9 9 15 15 13 7 -1 12 0 12 2 0 4
-186 156 -207 169 -7 5 -12 5 -11 0 1 -4 -6 -22 -16 -40 -19 -31 -19 -31 -53
-15 -18 9 -33 19 -33 23 0 4 13 21 29 38 l29 31 -106 83 c-128 100 -138 107
-121 80 10 -17 7 -27 -20 -67 l-33 -47 -61 35 c-34 19 -61 41 -61 49 1 8 42
68 91 133 49 66 93 126 98 134 19 34 -18 -11 -113 -137 -55 -73 -102 -130
-105 -126 -4 3 31 59 76 125 94 136 121 178 114 178 -3 0 -49 -63 -102 -140z
m230 -227 c47 -36 85 -68 85 -70 0 -12 -35 -63 -43 -63 -5 0 -52 23 -103 52
-105 57 -99 43 -48 123 9 14 18 25 20 25 2 0 42 -30 89 -67z m261 -198 c56
-44 81 -70 78 -80 -4 -8 -8 -15 -11 -15 -12 0 -193 102 -193 108 0 10 30 52
37 52 3 0 43 -29 89 -65z m333 -139 l90 -74 -37 -6 c-71 -11 -94 -6 -188 47
l-94 52 45 5 c28 4 54 14 67 28 13 12 23 22 24 22 1 0 43 -33 93 -74z"/>
<path d="M2856 3672 c10 -19 25 -39 33 -45 9 -8 8 0 -5 21 -10 19 -25 39 -33
45 -9 8 -8 0 5 -21z"/>
<path d="M6112 3673 c-32 -47 -38 -60 -21 -46 15 13 53 73 45 73 -2 0 -13 -12
-24 -27z"/>
<path d="M2650 3394 c-99 -78 -139 -114 -110 -99 19 11 210 166 210 171 0 7
-5 4 -100 -72z"/>
<path d="M6230 3467 c0 -5 185 -158 208 -171 34 -20 2 10 -85 80 -127 100
-123 97 -123 91z"/>
<path d="M2572 3142 c-243 -137 -445 -251 -448 -255 -4 -3 8 -30 27 -58 24
-38 32 -62 30 -85 -3 -42 24 -90 61 -105 15 -6 30 -20 33 -30 5 -14 16 -19 44
-19 43 0 60 -11 90 -62 13 -21 27 -38 32 -38 6 0 46 27 89 60 43 33 81 60 84
60 3 0 6 -7 6 -15 0 -16 30 -35 54 -35 9 0 16 7 16 16 0 11 6 14 20 10 11 -3
28 -8 38 -11 20 -5 37 4 38 23 1 6 2 22 3 35 1 16 27 40 102 91 63 42 104 64
108 58 4 -6 26 -14 50 -18 l44 -7 -5 51 c-5 49 -4 51 24 63 22 9 35 9 55 0 14
-6 28 -9 31 -7 6 7 -44 26 -67 26 -10 0 -44 -18 -77 -41 -32 -22 -117 -80
-189 -130 -130 -89 -130 -89 -147 -68 -10 12 -18 24 -18 28 1 6 465 363 482
369 4 2 8 -6 8 -17 0 -17 6 -21 30 -21 23 0 41 -10 68 -39 l37 -39 -57 -37
c-57 -36 -78 -68 -39 -58 13 3 27 -6 47 -32 l28 -37 -27 -24 c-28 -24 -33 -34
-19 -34 11 0 216 159 220 171 6 15 -8 10 -40 -12 -16 -12 -30 -20 -32 -18 -1
2 -12 20 -24 40 l-22 36 27 6 c16 3 43 20 61 36 28 26 41 31 83 31 l49 0 0 39
c0 40 0 40 -42 43 -34 2 -44 7 -46 23 -2 11 -7 24 -12 28 -4 5 -5 -3 -3 -17
l5 -26 -32 30 c-30 28 -43 35 -64 31 -5 -1 -19 8 -31 19 -13 12 -24 18 -26 13
-5 -12 -79 -67 -83 -62 -1 2 -26 32 -54 67 -30 36 -49 69 -46 75 4 7 4 9 -1 5
-4 -4 -15 -2 -23 5 -13 10 -14 9 -7 -2 6 -10 -4 -25 -34 -50 l-42 -36 52 -74
52 -73 -39 -34 c-39 -33 -54 -41 -54 -26 0 4 -10 18 -21 32 l-21 25 20 -35 20
-35 -196 -150 c-107 -82 -217 -168 -244 -191 -26 -22 -73 -58 -104 -79 l-56
-39 -20 24 -20 24 24 21 c14 11 123 97 243 190 120 94 241 188 269 209 32 25
45 41 36 44 -9 3 -3 14 21 34 31 27 22 24 -30 -7 -30 -18 -171 -127 -171 -132
0 -3 16 5 35 17 19 12 35 17 35 12 0 -9 -414 -339 -458 -365 -8 -6 -20 -3 -30
6 -9 9 -35 17 -56 19 -50 4 -56 20 -13 36 38 14 67 57 67 102 0 23 -10 42 -34
66 -42 42 -82 45 -125 9 l-30 -26 -30 45 -31 45 101 56 c55 31 102 55 103 53
2 -1 47 -67 100 -145 54 -79 100 -143 103 -143 3 0 19 11 37 25 17 14 36 29
41 33 81 62 155 125 155 131 0 5 -10 12 -22 15 -13 3 -39 30 -60 59 -20 28
-55 78 -77 109 l-42 57 30 16 c17 8 35 15 40 15 14 0 152 -206 144 -214 -4 -3
-4 -6 0 -6 3 0 54 36 112 81 101 78 105 81 86 97 -10 9 -42 50 -70 91 -59 86
-60 81 37 131 52 27 84 50 70 50 -2 0 -203 -112 -446 -248z m337 51 c34 -47
61 -89 61 -93 0 -9 -158 -130 -170 -130 -13 0 -145 199 -137 206 9 9 170 102
179 103 4 1 34 -38 67 -86z m279 -15 l51 -63 -37 -32 c-20 -18 -41 -32 -47
-32 -5 0 -31 30 -56 67 l-47 67 36 28 c19 15 39 27 43 27 4 0 30 -28 57 -62z
m167 -18 c3 -5 -1 -10 -10 -10 -10 0 -33 -16 -52 -35 -20 -20 -43 -35 -51 -33
-10 2 5 18 39 45 59 45 65 48 74 33z m66 -59 c20 -20 29 -39 29 -61 0 -40 -47
-90 -85 -90 -38 0 -85 50 -85 90 0 40 47 90 85 90 16 0 38 -12 56 -29z m-819
-34 c20 -29 55 -78 78 -109 l41 -57 -86 -66 c-46 -36 -88 -64 -93 -61 -5 3
-46 55 -92 115 -46 61 -86 108 -88 106 -2 -2 32 -51 77 -110 85 -109 104 -141
81 -133 -7 2 -51 58 -96 125 l-83 120 107 61 c59 34 109 61 112 61 3 0 22 -23
42 -52z m658 -22 c0 -21 -5 -25 -30 -25 -25 0 -30 4 -30 25 0 21 5 25 30 25
25 0 30 -4 30 -25z m300 -5 c0 -17 -7 -20 -40 -20 -33 0 -40 3 -40 20 0 17 7
20 40 20 33 0 40 -3 40 -20z m-600 -29 c0 -5 -18 -24 -40 -41 -24 -19 -40 -26
-40 -18 0 7 17 25 38 40 42 31 42 31 42 19z m411 -137 l22 -37 -34 -28 c-37
-30 -44 -28 -80 22 l-20 28 38 25 c21 15 41 26 45 26 3 0 16 -16 29 -36z
m-632 0 c-24 -29 -199 -157 -206 -150 -9 9 4 21 112 104 50 39 94 68 98 65 4
-3 3 -11 -4 -19z m331 -47 c0 -21 -22 -37 -49 -37 l-26 1 30 24 c34 28 45 31
45 12z m-756 -18 c73 -34 46 -159 -34 -159 -56 0 -93 64 -70 119 18 44 59 60
104 40z m389 -201 c-21 -23 -59 -23 -68 -1 -4 12 2 25 21 41 l27 24 18 -23
c16 -22 16 -25 2 -41z m77 19 c0 -19 -21 -37 -42 -37 -25 0 -23 14 5 33 27 20
37 21 37 4z"/>
<path d="M2232 2778 c-21 -21 -15 -75 10 -92 30 -21 51 -20 73 4 25 27 27 50
9 78 -16 25 -71 31 -92 10z m76 -10 c28 -28 7 -78 -33 -78 -27 0 -45 18 -45
45 0 27 18 45 45 45 12 0 26 -5 33 -12z"/>
<path d="M5964 3382 c3 -5 34 -24 68 -42 97 -50 96 -45 37 -131 -28 -41 -60
-82 -70 -91 -19 -16 -15 -20 87 -98 58 -45 109 -79 112 -76 3 4 2 6 -2 6 -3 0
25 47 64 105 39 58 75 105 81 105 5 0 23 -7 40 -15 l30 -16 -42 -57 c-22 -31
-57 -81 -77 -109 -21 -29 -47 -56 -59 -59 -13 -3 -23 -10 -23 -15 0 -6 74 -69
155 -131 6 -4 24 -19 41 -33 18 -14 34 -25 37 -25 3 0 49 64 103 143 53 78 98
144 100 145 1 2 48 -22 103 -53 l101 -56 -31 -45 -30 -45 -30 26 c-43 36 -83
33 -125 -9 -24 -24 -34 -43 -34 -66 0 -45 29 -88 67 -102 43 -16 37 -32 -13
-36 -21 -2 -47 -10 -56 -19 -10 -9 -22 -12 -30 -6 -44 26 -458 356 -458 365 0
5 16 0 35 -12 19 -12 35 -20 35 -17 0 5 -141 114 -171 132 -52 31 -61 34 -30
7 24 -20 30 -31 21 -34 -9 -3 4 -19 36 -44 28 -21 149 -115 269 -209 120 -93
229 -179 243 -190 l24 -21 -20 -24 -20 -24 -56 39 c-31 21 -78 57 -104 79 -27
23 -137 109 -244 191 l-196 150 20 35 20 35 -21 -25 c-11 -14 -21 -28 -21 -32
0 -15 -15 -7 -54 26 l-39 34 52 73 52 74 -42 36 c-30 25 -40 40 -34 50 7 11 6
12 -7 2 -8 -7 -19 -9 -23 -5 -5 4 -5 2 -1 -5 3 -6 -16 -39 -46 -75 -28 -35
-53 -65 -54 -67 -4 -5 -78 50 -83 62 -2 5 -13 -1 -26 -13 -12 -11 -26 -20 -31
-19 -21 4 -34 -3 -64 -31 l-32 -30 5 26 c2 14 1 22 -3 17 -5 -4 -10 -17 -12
-28 -2 -16 -12 -21 -46 -23 -42 -3 -42 -3 -42 -43 l0 -39 49 0 c42 0 55 -5 83
-31 18 -16 45 -33 61 -36 l27 -6 -22 -36 c-12 -20 -23 -38 -24 -40 -2 -2 -16
6 -32 18 -32 22 -46 27 -40 12 4 -12 209 -171 220 -171 14 0 9 10 -19 34 l-27
24 28 37 c20 26 34 35 47 32 39 -10 18 22 -38 58 l-58 37 37 39 c27 29 45 39
68 39 24 0 30 4 30 21 0 11 4 19 8 17 17 -6 481 -363 482 -369 0 -4 -8 -16
-17 -28 -18 -21 -18 -21 -148 68 -71 50 -157 108 -189 130 -33 23 -67 41 -77
41 -23 0 -73 -19 -67 -26 3 -2 17 1 31 7 20 9 33 9 55 0 28 -12 29 -14 24 -63
l-5 -51 44 7 c24 4 46 12 50 18 4 6 45 -16 108 -58 75 -51 101 -75 103 -91 0
-13 1 -29 2 -35 1 -7 6 -16 11 -20 10 -7 15 -7 63 7 16 5 22 2 22 -9 0 -9 7
-16 16 -16 24 0 54 19 54 35 0 8 3 15 6 15 3 0 41 -27 84 -60 43 -33 83 -60
89 -60 5 0 19 17 32 38 30 51 47 62 90 62 28 0 39 5 44 19 3 10 18 24 33 30
37 15 64 63 61 105 -2 23 6 47 30 85 19 29 30 56 25 60 -8 7 -812 459 -873
491 -13 6 -21 8 -17 2z m269 -156 c59 -32 87 -53 83 -62 -11 -28 -127 -194
-136 -194 -12 0 -170 121 -170 130 0 12 122 181 128 178 4 -2 47 -25 95 -52z
m-333 -19 l27 -22 -46 -67 c-25 -37 -50 -67 -56 -67 -5 0 -27 14 -47 32 l-37
32 51 63 c54 67 59 69 108 29z m-203 -79 c35 -27 51 -44 41 -46 -8 -2 -31 13
-51 33 -19 19 -42 35 -52 35 -9 0 -13 5 -10 10 9 15 11 14 72 -32z m-26 -27
c20 -20 29 -39 29 -61 0 -40 -47 -90 -85 -90 -38 0 -85 50 -85 90 0 40 47 90
85 90 16 0 38 -12 56 -29z m860 -42 l108 -62 -83 -120 c-45 -67 -89 -123 -96
-125 -23 -8 -4 24 81 133 45 59 79 108 77 110 -2 2 -42 -45 -88 -106 -46 -60
-87 -112 -92 -115 -5 -3 -47 25 -93 61 l-86 66 41 57 c23 31 58 80 78 109 20
29 39 52 41 53 2 0 52 -28 112 -61z m-751 -14 c0 -21 -5 -25 -30 -25 -25 0
-30 4 -30 25 0 21 5 25 30 25 25 0 30 -4 30 -25z m-280 -5 c0 -17 -7 -20 -40
-20 -33 0 -40 3 -40 20 0 17 7 20 40 20 33 0 40 -3 40 -20z m600 -88 c0 -8
-16 -1 -40 18 -52 41 -52 60 0 23 22 -15 40 -34 40 -41z m-417 -68 l38 -25
-20 -28 c-36 -50 -43 -52 -80 -22 l-34 28 22 37 c13 20 26 36 29 36 4 0 24
-11 45 -26z m764 -147 c3 -4 2 -11 -1 -14 -11 -12 -219 154 -210 168 5 8 197
-132 211 -154z m-492 78 l30 -24 -25 -1 c-28 0 -50 16 -50 37 0 19 11 16 45
-12z m779 -6 c73 -34 46 -159 -34 -159 -56 0 -93 64 -70 119 18 44 59 60 104
40z m-396 -172 c30 -36 -23 -64 -59 -31 -17 15 -17 18 -2 40 16 25 36 22 61
-9z m-103 -13 c29 -19 32 -34 7 -34 -21 0 -42 18 -42 37 0 17 6 16 35 -3z"/>
<path d="M6656 2768 c-18 -28 -16 -51 9 -78 22 -24 43 -25 73 -4 25 17 31 71
10 92 -21 21 -76 15 -92 -10z m82 0 c7 -7 12 -21 12 -33 0 -12 -5 -26 -12 -33
-7 -7 -21 -12 -33 -12 -12 0 -26 5 -33 12 -7 7 -12 21 -12 33 0 12 5 26 12 33
7 7 21 12 33 12 12 0 26 -5 33 -12z"/>
<path d="M1975 3187 c4 -10 -6 -24 -30 -43 -20 -15 -32 -30 -28 -33 4 -3 16
-16 26 -27 18 -21 17 -22 -53 -74 -38 -28 -70 -54 -70 -57 0 -7 18 6 143 99
112 85 142 112 95 87 -18 -10 -24 -8 -39 12 -9 13 -15 28 -12 34 4 5 3 7 -2 3
-4 -4 -14 -3 -22 4 -11 8 -12 7 -8 -5z m40 -47 c18 -20 18 -21 -1 -35 -41 -33
-48 -34 -66 -10 -17 23 -17 24 8 44 33 26 36 26 59 1z"/>
<path d="M6995 3190 c-4 -6 -11 -7 -17 -4 -6 4 -8 3 -5 -2 3 -5 -3 -20 -12
-33 -15 -20 -21 -22 -39 -12 -47 25 -17 -2 96 -87 124 -93 142 -106 142 -99 0
3 -32 29 -70 57 -70 52 -71 53 -53 74 10 11 22 24 26 27 4 3 -8 18 -28 33 -22
17 -34 34 -31 42 6 16 0 19 -9 4z m29 -51 c25 -20 25 -21 8 -44 -18 -24 -25
-23 -66 10 -19 14 -19 15 -1 35 23 25 26 25 59 -1z"/>
<path d="M1991 3024 c-66 -52 -121 -97 -121 -100 0 -8 20 6 138 99 101 80 120
97 108 97 -2 0 -58 -43 -125 -96z"/>
<path d="M6860 3116 c0 -4 213 -175 238 -190 6 -4 12 -5 12 -2 0 4 -213 175
-237 190 -7 4 -13 5 -13 2z"/>
<path d="M3498 2861 c-5 -13 -225 -181 -237 -181 -6 0 -11 -4 -11 -9 0 -5 97
-137 215 -294 155 -207 213 -291 208 -303 -5 -13 -3 -16 10 -11 11 4 20 -1 27
-13 6 -11 16 -20 21 -20 10 0 9 6 -7 45 -4 9 166 151 215 180 9 5 20 0 32 -16
30 -40 33 -13 3 30 -16 22 -100 132 -186 245 -87 112 -158 208 -158 211 0 4
17 4 38 1 l37 -7 -29 16 c-16 9 -36 13 -43 10 -8 -2 -11 0 -8 5 3 6 2 10 -4
10 -6 0 -29 25 -51 55 -38 51 -64 68 -72 46z m363 -477 l77 -100 -101 -80
c-55 -43 -109 -85 -119 -92 -16 -11 -38 15 -227 267 l-211 280 116 91 116 90
135 -178 c75 -97 171 -222 214 -278z"/>
<path d="M5410 2815 c-22 -30 -45 -55 -51 -55 -6 0 -7 -4 -4 -10 3 -5 0 -7 -8
-5 -7 3 -27 -1 -43 -10 l-29 -16 38 7 c20 3 37 3 37 -1 0 -3 -71 -99 -157
-211 -87 -113 -171 -223 -187 -245 -30 -43 -27 -70 3 -30 22 28 15 32 149 -73
62 -49 100 -85 97 -93 -3 -7 -8 -20 -11 -28 -9 -22 14 -18 26 5 7 12 16 17 27
13 13 -5 15 -2 10 11 -5 12 53 96 208 303 118 157 215 289 215 294 0 5 -5 9
-11 9 -11 0 -216 154 -235 177 -19 22 -32 15 -74 -42z m182 -72 l108 -84 -211
-280 c-189 -252 -211 -278 -227 -267 -10 7 -63 49 -119 92 l-101 80 85 110
c47 61 142 186 212 277 69 92 131 164 136 161 6 -3 58 -43 117 -89z"/>
<path d="M3850 2144 c-52 -42 -96 -82 -98 -90 -4 -16 14 -19 23 -4 14 23 36 3
140 -130 100 -127 125 -154 125 -132 0 4 -52 72 -115 152 l-115 145 23 18 c54
43 57 42 57 -15 0 -66 26 -112 72 -128 30 -11 37 -21 63 -91 26 -69 45 -99 45
-69 0 17 -53 145 -62 148 -4 2 -8 10 -8 18 0 8 -10 14 -25 14 -36 0 -64 49
-64 115 0 45 5 57 30 81 16 15 29 31 29 36 0 20 -32 2 -120 -68z"/>
<path d="M5010 2212 c0 -5 13 -21 29 -36 25 -24 30 -36 30 -81 0 -66 -28 -115
-64 -115 -15 0 -25 -6 -25 -14 0 -8 -4 -16 -8 -18 -9 -3 -62 -131 -62 -148 0
-30 19 0 45 69 26 70 33 80 63 91 46 16 72 62 72 128 0 57 3 58 57 15 l23 -18
-115 -145 c-63 -80 -115 -148 -115 -152 0 -22 25 5 125 132 104 133 126 153
140 130 9 -15 27 -12 23 4 -2 8 -46 48 -98 90 -88 70 -120 88 -120 68z"/>
</g>
</svg>
