<?xml version="1.0" standalone="no"?>
<!DOCTYPE svg PUBLIC "-//W3C//DTD SVG 20010904//EN"
 "http://www.w3.org/TR/2001/REC-SVG-20010904/DTD/svg10.dtd">
<svg version="1.0" xmlns="http://www.w3.org/2000/svg"
 width="677.000000pt" height="262.000000pt" viewBox="0 0 677.000000 262.000000"
 preserveAspectRatio="xMidYMid meet">

<g transform="translate(0.000000,262.000000) scale(0.100000,-0.100000)"
fill="#000000" stroke="none">
<path d="M3380 2589 c0 -6 -8 -23 -19 -37 -10 -15 -21 -36 -24 -47 -4 -17 -5
-16 -6 4 l-1 24 -24 -22 c-46 -44 -41 -104 10 -117 14 -4 22 -9 19 -12 -3 -3
3 -14 12 -25 17 -18 16 -20 -15 -48 -26 -23 -42 -29 -78 -29 -25 0 -58 7 -74
15 -24 12 -28 20 -25 47 2 18 7 42 10 54 14 44 -56 78 -100 50 -28 -19 -33
-56 -10 -80 8 -8 12 -21 9 -29 -3 -8 2 -17 10 -20 9 -4 13 -13 10 -22 -10 -26
-59 -45 -114 -45 -43 0 -50 3 -48 18 2 9 11 23 21 30 31 24 22 70 -25 116 -22
22 -43 36 -45 29 -3 -7 -19 -3 -49 14 -24 14 -44 20 -44 15 0 -5 18 -49 41
-98 33 -71 39 -92 30 -106 -9 -15 -7 -20 12 -27 23 -9 52 -75 41 -92 -3 -5 0
-17 5 -28 8 -14 7 -22 -4 -31 -20 -17 -19 -67 2 -79 14 -7 15 -12 4 -24 -10
-13 -9 -17 7 -26 84 -45 860 -45 943 -1 11 6 16 16 12 26 -3 8 0 26 7 40 11
19 11 29 1 47 -17 33 1 156 25 163 45 14 45 13 33 32 -9 15 -3 34 35 110 25
50 46 94 46 97 0 3 -22 -6 -49 -20 -33 -16 -51 -21 -53 -13 -2 6 -25 -9 -51
-34 -52 -50 -62 -89 -27 -110 11 -7 20 -21 20 -30 0 -15 -9 -18 -50 -18 -41 0
-56 5 -75 25 -26 25 -32 45 -14 45 6 0 9 8 7 18 -2 9 5 24 16 33 25 21 15 65
-19 81 -47 21 -113 -16 -100 -56 24 -75 4 -144 -49 -170 l-31 -16 45 0 c25 0
69 -3 99 -7 37 -4 52 -3 48 4 -4 6 -17 9 -30 6 -19 -4 -20 -3 -4 7 9 6 17 15
17 20 0 5 -8 7 -17 4 -17 -5 -17 -5 -1 6 13 8 23 8 39 0 11 -7 41 -12 66 -12
56 0 45 -15 -24 -32 -54 -14 -546 -10 -538 4 3 4 -17 11 -43 15 l-47 8 35 10
c30 9 32 11 13 15 -41 7 -24 17 22 14 65 -6 94 4 132 44 l33 35 0 -70 0 -71
45 0 45 0 -25 50 -25 50 32 -20 c40 -24 112 -26 148 -4 16 10 18 13 5 8 -11
-3 -43 -9 -71 -11 -46 -5 -54 -2 -88 27 -33 30 -35 34 -21 50 8 9 12 20 8 23
-3 4 3 7 14 7 27 0 53 31 53 63 0 29 -15 44 -24 25 -3 -7 -3 -3 -1 8 4 15 0
24 -12 28 -10 4 -19 2 -21 -4 -2 -6 -15 12 -30 40 -24 47 -42 64 -42 39z m-9
-62 c-10 -9 -11 -8 -5 6 3 10 9 15 12 12 3 -3 0 -11 -7 -18z m57 -36 c-2 -14
-9 -26 -15 -29 -9 -2 -13 10 -13 45 1 45 2 47 16 28 8 -11 14 -31 12 -44z
m-71 -13 c-3 -7 -5 -2 -5 12 0 14 2 19 5 13 2 -7 2 -19 0 -25z m-24 -63 c31
-14 31 -14 7 -15 -35 0 -50 18 -49 55 l2 30 4 -28 c3 -20 14 -33 36 -42z m47
14 c0 -6 -13 -1 -30 11 -16 12 -30 26 -30 31 0 6 14 1 30 -11 17 -12 30 -26
30 -31z m80 33 c0 -5 -11 -14 -25 -20 -31 -14 -33 1 -2 16 28 14 27 13 27 4z
m40 -16 c0 -22 -29 -46 -53 -46 -18 1 -16 3 11 15 17 8 32 21 32 30 0 8 2 15
5 15 3 0 5 -6 5 -14z m-658 -16 c14 -10 28 -16 32 -12 4 3 4 -2 0 -11 -6 -16
-8 -16 -21 3 -8 12 -21 19 -28 16 -7 -2 -16 2 -19 10 -8 20 7 18 36 -6z m303
-2 c6 -6 5 -12 -5 -18 -22 -14 -46 -12 -61 6 -25 30 35 42 66 12z m571 11 c11
-19 -22 -42 -50 -35 -32 8 -33 24 -3 36 30 12 45 12 53 -1z m274 1 c0 -5 -5
-10 -12 -10 -23 0 -48 -34 -48 -64 -1 -25 -2 -28 -10 -14 -14 23 7 65 39 83
32 17 31 17 31 5z m-1096 -89 c-15 -15 -16 -14 -10 2 3 10 6 28 7 40 0 21 1
21 10 -2 7 -19 6 -28 -7 -40z m170 33 c3 -8 2 -12 -4 -9 -6 3 -10 10 -10 16 0
14 7 11 14 -7z m590 0 c3 -8 2 -12 -4 -9 -6 3 -10 10 -10 16 0 14 7 11 14 -7z
m-251 -1 c-7 -2 -19 -2 -25 0 -7 3 -2 5 12 5 14 0 19 -2 13 -5z m502 -33 c7
-22 6 -23 -9 -11 -9 7 -16 23 -16 34 0 26 15 12 25 -23z m-782 13 c-7 -2 -21
-2 -30 0 -10 3 -4 5 12 5 17 0 24 -2 18 -5z m580 0 c-7 -2 -19 -2 -25 0 -7 3
-2 5 12 5 14 0 19 -2 13 -5z m170 -50 c25 -27 8 -30 -23 -5 -18 14 -21 23 -14
43 7 22 8 22 12 4 2 -11 13 -30 25 -42z m-943 -5 c-13 -10 -26 -16 -29 -12 -3
3 4 13 17 21 12 9 23 23 23 32 1 12 3 11 6 -4 3 -12 -3 -26 -17 -37z m193 35
c-7 -2 -19 -2 -25 0 -7 3 -2 5 12 5 14 0 19 -2 13 -5z m584 1 c-3 -3 -12 -4
-19 -1 -8 3 -5 6 6 6 11 1 17 -2 13 -5z m-590 -20 c-3 -3 -12 -4 -19 -1 -8 3
-5 6 6 6 11 1 17 -2 13 -5z m1 -69 l-5 -54 36 -4 c20 -3 -7 -3 -60 -2 -70 2
-105 8 -130 21 l-34 19 60 6 c73 7 89 13 105 45 22 40 33 28 28 -31z m752 -65
c-6 -12 -14 -20 -17 -17 -2 3 1 14 8 26 17 26 24 19 9 -9z m-937 -23 c-7 -11
-23 12 -23 33 1 12 4 11 15 -4 8 -10 12 -23 8 -29z m610 16 c-56 -2 -151 -2
-210 0 -59 1 -13 3 102 3 116 0 164 -2 108 -3z m220 -10 c-7 -2 -21 -2 -30 0
-10 3 -4 5 12 5 17 0 24 -2 18 -5z m-210 -10 c-84 -2 -222 -2 -305 0 -84 1
-16 3 152 3 168 0 236 -2 153 -3z m-520 -10 c-7 -2 -19 -2 -25 0 -7 3 -2 5 12
5 14 0 19 -2 13 -5z m750 0 c-7 -2 -19 -2 -25 0 -7 3 -2 5 12 5 14 0 19 -2 13
-5z m62 -3 c-3 -5 0 -10 7 -11 7 0 9 -2 3 -5 -6 -2 -9 -32 -7 -70 l4 -67 -39
6 c-21 4 -90 9 -153 12 -63 3 -143 8 -178 11 -60 5 -63 7 -48 23 21 23 20 60
-1 84 -18 19 -16 19 167 14 102 -3 199 -8 215 -11 17 -3 21 -3 10 1 l-20 6 20
8 c27 10 27 10 20 -1z m-725 -13 c-18 -9 -26 -22 -28 -46 -2 -21 0 -31 7 -27
7 5 8 1 5 -9 -5 -13 -1 -15 22 -10 23 4 25 3 9 -4 -14 -7 2 -10 60 -10 53 0
73 3 60 9 -11 5 -15 9 -10 10 6 0 2 5 -8 11 -9 6 -15 14 -12 19 3 4 -11 22
-30 39 l-36 31 105 0 c58 0 108 -4 111 -10 3 -6 -1 -7 -9 -4 -10 4 -20 -3 -28
-21 -10 -23 -9 -32 4 -56 10 -16 16 -29 15 -30 -1 0 -81 -4 -177 -9 -96 -4
-192 -11 -212 -15 l-38 -7 2 63 2 64 3 -57 4 -57 47 6 c52 7 65 17 70 52 5 30
-12 41 -52 35 -32 -5 -66 9 -54 22 8 7 101 21 158 23 35 1 35 1 10 -12z m43
-58 c5 -20 5 -20 -14 -3 -23 20 -28 54 -5 35 8 -6 16 -21 19 -32z m255 24 c2
-8 -5 -13 -17 -13 -12 0 -21 6 -21 16 0 18 31 15 38 -3z m19 -25 c-3 -7 -5 -2
-5 12 0 14 2 19 5 13 2 -7 2 -19 0 -25z m-392 12 c3 -5 -1 -10 -9 -10 -9 0
-16 5 -16 10 0 6 4 10 9 10 6 0 13 -4 16 -10z m350 -43 c19 -4 19 -5 -1 -6
-12 0 -28 7 -35 17 -12 15 -12 16 1 6 8 -7 24 -14 35 -17z m252 -49 c-7 -3
-163 -8 -347 -11 -184 -2 -346 -8 -360 -11 -22 -6 -23 -6 -7 4 10 7 57 15 105
18 112 9 624 9 609 0z m202 -18 c11 -6 10 -8 -3 -13 -8 -3 -18 -2 -21 3 -4 6
-24 10 -45 10 -21 0 -42 5 -46 11 -7 12 89 3 115 -11z"/>
<path d="M3629 2133 c-1 -5 -1 -12 0 -16 1 -5 -3 -6 -9 -2 -14 9 -23 -20 -16
-50 9 -36 54 -45 78 -15 23 28 23 52 0 73 -19 17 -51 23 -53 10z m39 -37 c3
-12 -1 -17 -10 -14 -7 3 -15 13 -16 22 -3 12 1 17 10 14 7 -3 15 -13 16 -22z
m7 -46 c-3 -5 -12 -10 -18 -10 -7 0 -6 4 3 10 19 12 23 12 15 0z"/>
<path d="M3505 2104 c-20 -20 -2 -46 29 -42 24 4 34 37 14 49 -18 12 -24 11
-43 -7z m40 -4 c3 -5 -3 -10 -15 -10 -12 0 -18 5 -15 10 3 6 10 10 15 10 5 0
12 -4 15 -10z"/>
<path d="M3827 2113 c-5 -7 -28 -13 -53 -13 -38 0 -44 -3 -44 -21 0 -12 8 -28
18 -35 16 -13 16 -13 -3 -15 -11 -1 5 -5 35 -9 30 -5 56 -7 58 -5 2 1 2 27 0
56 -2 32 -6 49 -11 42z m-47 -38 c0 -9 -6 -12 -15 -9 -8 4 -15 10 -15 15 0 5
7 9 15 9 8 0 15 -7 15 -15z"/>
<path d="M3250 2105 c-10 -12 -10 -18 0 -30 14 -16 45 -21 35 -5 -3 6 1 7 9 4
11 -4 16 0 16 14 0 18 -18 32 -40 32 -4 0 -13 -7 -20 -15z m44 -4 c3 -5 -5
-11 -18 -13 -17 -4 -23 -1 -19 9 6 15 29 18 37 4z"/>
<path d="M3218 2233 c7 -3 16 -2 19 1 4 3 -2 6 -13 5 -11 0 -14 -3 -6 -6z"/>
<path d="M2922 1769 c15 -6 30 -18 33 -28 6 -21 -95 -218 -122 -238 -14 -11
-11 -13 24 -13 37 0 41 2 36 20 -3 12 2 39 12 60 17 39 20 40 66 40 41 0 51
-4 66 -26 9 -14 17 -41 17 -60 1 -28 5 -34 24 -34 12 0 22 4 22 9 0 5 -30 71
-67 145 l-66 136 -36 -1 c-36 -1 -36 -1 -9 -10z m73 -99 c20 -39 20 -40 -20
-40 -19 0 -35 2 -35 5 0 9 30 65 35 65 2 0 11 -13 20 -30z"/>
<path d="M2999 1756 c5 -13 37 -78 70 -145 53 -104 64 -121 85 -121 l24 0 -27
29 c-15 16 -52 81 -82 145 -30 64 -60 116 -66 116 -9 0 -10 -7 -4 -24z"/>
<path d="M3224 1765 c30 -31 35 -225 6 -260 -11 -13 -9 -15 14 -15 l26 0 0
145 0 145 -31 0 c-27 0 -29 -2 -15 -15z"/>
<path d="M3290 1635 l0 -145 26 0 c24 0 24 1 10 22 -19 26 -22 108 -4 108 6 0
42 -29 79 -65 44 -43 75 -65 91 -65 22 1 22 1 3 12 -32 18 -135 118 -121 118
7 0 44 -27 81 -60 65 -57 105 -74 120 -50 3 6 -4 10 -18 10 -14 0 -46 19 -80
49 -31 27 -61 51 -68 53 -10 3 -8 10 4 28 23 33 22 85 -3 110 -15 15 -33 20
-70 20 l-50 0 0 -145z m105 101 c30 -46 -1 -96 -59 -96 -25 0 -26 3 -26 53 0
62 3 67 41 67 19 0 34 -8 44 -24z"/>
<path d="M3586 1758 c-12 -45 -6 -53 17 -25 19 25 28 28 67 25 l45 -3 0 -119
c-1 -104 -3 -120 -20 -132 -18 -13 -17 -14 13 -14 l32 0 0 145 0 145 -74 0
c-68 0 -74 -2 -80 -22z"/>
<path d="M3760 1635 l0 -145 26 0 c24 0 24 1 10 22 -12 17 -16 49 -16 135 l0
113 43 0 c50 0 63 -7 76 -40 9 -23 10 -21 10 18 l1 42 -75 0 -75 0 0 -145z"/>
<path d="M3440 1751 c7 -14 10 -41 7 -63 -5 -38 -5 -39 14 -22 26 24 24 56 -7
85 l-27 24 13 -24z"/>
<path d="M5420 1269 c-85 -9 -160 -54 -205 -123 -44 -66 -57 -193 -29 -286 24
-82 99 -152 194 -181 156 -47 300 11 362 146 32 71 32 207 -1 282 -25 56 -93
126 -139 144 -43 17 -122 25 -182 18z m137 -55 c70 -45 101 -157 84 -306 -15
-129 -67 -197 -158 -205 -72 -6 -130 27 -163 92 -22 45 -25 62 -25 170 0 108
2 125 25 169 14 28 37 59 51 69 52 37 137 43 186 11z"/>
<path d="M5400 1178 c-49 -34 -72 -102 -74 -218 -1 -103 17 -172 55 -206 17
-15 16 -9 -8 36 -26 50 -28 63 -28 165 0 95 3 116 24 158 30 61 66 81 135 74
28 -2 60 -8 71 -11 13 -5 11 -2 -5 8 -39 24 -130 21 -170 -6z"/>
<path d="M465 1254 c-58 -20 -106 -64 -140 -125 -28 -50 -30 -61 -30 -159 0
-83 4 -113 19 -144 27 -54 82 -104 146 -135 104 -49 261 -30 338 42 112 104
113 342 4 461 -49 52 -116 76 -212 75 -47 0 -103 -7 -125 -15z m223 -51 c59
-44 67 -72 67 -228 0 -131 -2 -143 -25 -184 -32 -57 -67 -82 -123 -88 -41 -5
-49 -2 -72 23 -61 68 -70 99 -70 234 0 114 2 128 24 163 35 58 61 70 131 65
33 -2 55 -1 48 4 -7 4 -35 8 -63 8 -58 0 -107 -25 -129 -67 -36 -71 -45 -220
-17 -313 6 -20 26 -53 45 -73 47 -51 15 -49 -34 2 -23 24 -41 56 -49 84 -14
57 -14 190 0 256 27 127 169 188 267 114z"/>
<path d="M1038 1239 l42 -31 0 -99 0 -98 -32 -17 c-44 -22 -68 -44 -68 -62 0
-13 2 -13 18 1 21 19 72 33 72 20 0 -6 -10 -15 -22 -22 -22 -11 -22 -11 -2 -8
20 4 22 -1 27 -92 l7 -96 -38 -32 -37 -33 131 0 c107 0 133 -3 138 -15 4 -12
-15 -15 -122 -18 l-127 -3 150 -2 149 -2 -47 48 -48 49 2 94 c1 52 -2 94 -7
94 -5 0 -9 -48 -9 -106 0 -81 -3 -105 -12 -102 -10 4 -13 38 -13 124 l0 119
115 0 c102 0 139 -8 103 -23 -8 -3 -6 -6 5 -6 15 -1 17 -13 17 -100 l0 -99
-37 -24 -38 -23 134 -5 c93 -3 136 -9 138 -17 3 -9 -28 -13 -124 -16 l-128 -3
150 -2 149 -2 -47 48 -47 48 0 231 0 232 33 30 c38 37 24 41 -16 6 l-28 -25 3
-250 c2 -137 1 -250 -2 -250 -26 0 -30 35 -30 266 l0 242 38 31 37 30 -130 1
-130 0 38 -27 38 -27 -3 -105 -3 -106 -97 -3 -98 -3 0 100 c0 96 1 100 27 120
14 12 23 24 19 28 -3 4 -20 -6 -36 -22 -29 -28 -30 -31 -30 -127 0 -59 -4 -98
-10 -98 -6 0 -10 41 -10 104 l0 104 35 31 36 31 -133 0 -132 0 42 -31z"/>
<path d="M2338 1195 l37 -75 11 32 c16 49 55 72 119 73 70 0 76 -18 8 -25 -60
-6 -88 -28 -98 -75 -5 -23 -4 -26 4 -15 6 8 11 23 11 33 0 22 55 47 105 47
l35 0 0 -234 0 -234 -37 -24 -38 -23 134 -5 c93 -3 136 -9 138 -17 3 -9 -27
-13 -119 -16 l-123 -3 144 -2 144 -2 -47 50 -46 50 2 227 3 228 28 3 c16 2 43
-1 60 -7 29 -10 30 -9 13 4 -11 9 -41 15 -68 15 l-49 0 3 -250 c2 -138 0 -250
-3 -250 -26 0 -29 39 -27 276 l3 249 62 0 c68 0 96 -16 118 -69 l13 -30 26 50
c14 27 33 59 42 72 l16 22 -330 0 -331 0 37 -75z"/>
<path d="M3270 1260 c0 -5 9 -14 20 -20 26 -14 26 -19 -11 -112 -29 -72 -49
-93 -64 -68 -3 6 -13 10 -21 10 -10 0 -5 -9 13 -24 36 -31 24 -45 -15 -17 -35
25 -42 26 -42 7 0 -7 -7 -19 -15 -26 -21 -17 -19 -40 4 -40 31 0 51 -11 51
-28 0 -8 -16 -48 -35 -88 -36 -74 -98 -147 -135 -159 -49 -16 -12 -25 100 -25
66 0 120 3 120 6 0 3 -12 20 -26 37 -22 26 -25 38 -21 72 8 56 46 140 59 127
6 -6 2 -31 -11 -70 -12 -34 -21 -71 -21 -82 0 -25 23 -72 44 -89 9 -8 16 -17
16 -22 0 -5 -60 -10 -132 -12 l-133 -3 149 -2 148 -2 -37 45 c-30 37 -37 53
-37 89 0 44 27 116 42 116 5 0 25 -20 46 -45 l37 -45 54 51 55 52 40 -83 39
-82 -33 -29 -33 -29 137 1 c105 2 141 -1 154 -12 15 -12 -1 -15 -122 -19
l-139 -6 160 -2 160 -2 -35 28 c-75 58 -100 89 -134 170 -20 46 -36 88 -36 94
0 7 18 9 50 6 28 -3 50 -4 50 -3 0 1 -13 29 -30 61 -16 32 -30 52 -30 44 1 -8
7 -26 15 -40 24 -42 19 -50 -30 -50 -25 0 -45 -4 -45 -10 0 -22 86 -197 109
-224 l26 -28 -35 21 c-29 17 -44 40 -86 133 -29 62 -48 117 -44 121 4 5 25 11
47 14 l39 5 -19 39 c-20 40 -34 48 -54 28 -9 -9 -19 5 -42 53 -44 94 -46 109
-20 143 l22 30 -33 -32 -33 -32 36 -81 c39 -85 47 -121 24 -102 -7 6 -30 51
-51 101 l-39 91 21 23 c12 13 22 26 22 30 0 4 -52 7 -115 7 -67 0 -115 -4
-115 -10z m90 -117 c0 -10 -14 -51 -32 -91 l-32 -72 42 -42 c43 -42 49 -53 33
-62 -8 -5 -101 95 -101 109 0 3 17 44 37 91 35 81 53 103 53 67z m60 -122 l32
-75 -28 -23 -29 -22 -37 36 c-21 21 -38 42 -38 49 0 23 52 126 60 117 4 -4 22
-42 40 -82z"/>
<path d="M3847 1198 l36 -72 16 35 c21 44 72 70 131 67 61 -4 55 -21 -10 -31
-60 -8 -86 -26 -93 -63 -5 -28 1 -25 17 8 15 30 52 48 99 48 l37 0 0 -232 0
-232 -32 -27 -33 -28 113 -1 c61 0 112 4 112 9 0 5 -11 16 -25 25 l-25 17 2
252 3 252 50 3 c61 3 110 -23 129 -70 l14 -32 22 45 c31 60 57 92 65 79 3 -6
-8 -35 -25 -65 -17 -30 -30 -60 -28 -66 2 -6 16 12 31 40 16 28 32 51 36 51 4
0 16 -18 26 -40 21 -48 30 -50 38 -10 9 42 47 63 117 64 76 1 78 -17 3 -25
-62 -7 -94 -33 -92 -73 l2 -21 4 21 c7 39 40 58 96 59 l52 0 3 -227 2 -228
-41 -30 -41 -29 133 -3 c93 -2 134 -7 136 -15 3 -9 -27 -13 -119 -16 l-123 -3
143 -2 c78 -1 142 1 142 5 0 3 -18 23 -40 44 l-40 38 0 237 0 237 58 -7 c39
-4 52 -3 42 4 -8 5 -39 10 -67 10 l-53 0 0 -243 c0 -181 3 -246 13 -256 9 -11
7 -10 -10 0 -23 14 -23 15 -23 271 l0 258 44 0 c57 0 104 -17 111 -41 4 -10
11 -19 16 -19 5 0 9 -7 9 -15 0 -29 19 -14 52 43 18 31 34 60 36 65 2 4 -291
7 -652 7 l-655 0 36 -72z"/>
<path d="M6056 1255 c-54 -19 -105 -63 -141 -121 -29 -47 -30 -53 -30 -164 0
-111 1 -117 31 -165 106 -174 393 -192 501 -31 45 66 56 115 51 216 -8 127
-54 206 -150 254 -44 22 -65 26 -137 26 -48 -1 -103 -7 -125 -15z m205 -41
c68 -35 95 -119 86 -276 -8 -149 -50 -219 -143 -234 -88 -14 -170 39 -193 123
-14 49 -14 227 0 276 14 52 71 113 117 125 42 12 94 7 133 -14z"/>
<path d="M6102 1175 c-40 -33 -62 -92 -69 -184 -6 -88 8 -168 38 -218 29 -47
33 -36 6 18 -17 35 -23 65 -25 145 -4 123 9 177 54 222 32 32 37 34 91 30 32
-2 67 -8 78 -12 l20 -9 -20 16 c-13 11 -40 16 -82 17 -51 0 -66 -4 -91 -25z"/>
<path d="M1815 1231 c-8 -25 -71 -81 -90 -81 -21 0 -19 -5 14 -54 33 -48 71
-151 71 -193 0 -38 10 -73 21 -73 5 0 9 15 9 33 0 67 24 150 61 210 l37 62
-35 18 c-23 12 -41 32 -52 58 -18 43 -27 48 -36 20z"/>
<path d="M2958 1215 c-36 -58 -48 -82 -48 -97 0 -7 10 3 21 22 12 19 30 48 41
63 11 15 18 33 15 40 -2 7 -15 -6 -29 -28z"/>
<path d="M5127 1218 c-33 -44 -59 -97 -55 -110 2 -6 15 12 29 39 15 27 34 61
44 76 24 38 11 34 -18 -5z"/>
<path d="M1870 1234 c0 -13 58 -68 88 -84 22 -11 22 -13 8 -33 -62 -87 -109
-213 -104 -274 5 -47 12 -29 27 64 11 72 45 144 98 207 l25 29 -38 19 c-21 10
-53 33 -71 50 -18 18 -33 27 -33 22z"/>
<path d="M5712 1205 c20 -22 49 -66 64 -98 22 -50 26 -73 26 -147 0 -73 -4
-97 -24 -142 -52 -111 -139 -167 -277 -178 l-86 -7 85 -1 c65 -1 95 3 129 18
74 34 118 76 153 147 30 61 33 75 33 162 0 84 -3 103 -27 151 -28 57 -46 81
-88 115 -14 11 -8 2 12 -20z"/>
<path d="M6387 1229 c7 -7 15 -10 18 -7 3 3 -2 9 -12 12 -14 6 -15 5 -6 -5z"/>
<path d="M4220 957 l0 -243 30 -29 c17 -16 30 -32 30 -37 0 -4 -55 -9 -122
-11 l-123 -3 144 -2 144 -2 -47 50 -46 50 2 227 3 228 28 3 c16 2 43 -1 60 -7
29 -10 30 -9 13 4 -11 9 -41 15 -68 15 l-48 0 0 -243z"/>
<path d="M850 1180 c0 -5 4 -10 8 -10 5 0 19 -23 33 -52 21 -44 24 -66 24
-157 0 -92 -3 -112 -23 -151 -57 -108 -139 -159 -277 -171 l-90 -7 100 2 c80
2 108 6 140 23 82 44 138 118 160 210 19 77 18 123 -1 191 -21 72 -74 159 -74
122z"/>
<path d="M6472 1130 c31 -61 33 -71 33 -170 0 -98 -2 -109 -29 -158 -58 -104
-137 -152 -271 -163 l-90 -7 100 2 c89 1 106 5 147 29 94 55 150 147 164 272
8 64 -25 185 -63 230 -21 26 -20 22 9 -35z"/>
<path d="M1000 910 c-9 -6 -10 -10 -3 -10 6 0 15 5 18 10 8 12 4 12 -15 0z"/>
<path d="M1303 913 c15 -2 39 -2 55 0 15 2 2 4 -28 4 -30 0 -43 -2 -27 -4z"/>
<path d="M3430 815 c-24 -25 -40 -45 -35 -44 10 1 92 89 83 89 -2 0 -24 -20
-48 -45z"/>
<path d="M1779 759 c-26 -26 -21 -57 13 -82 62 -46 147 35 90 86 -26 23 -78
21 -103 -4z"/>
<path d="M1932 730 c19 -56 -30 -98 -102 -88 -19 3 -27 1 -21 -5 14 -14 79
-11 105 6 29 19 39 57 26 91 -13 36 -21 32 -8 -4z"/>
<path d="M2260 357 c-19 -7 -41 -24 -49 -38 -24 -44 2 -72 94 -100 84 -25 125
-55 125 -94 0 -14 5 -25 10 -25 6 0 10 15 10 34 0 48 -33 76 -126 106 -91 29
-111 51 -75 81 44 36 162 17 174 -28 3 -10 5 1 6 23 1 40 0 42 -36 48 -54 8
-93 7 -133 -7z"/>
<path d="M3628 363 l-48 -4 0 -160 0 -159 89 0 c75 0 93 3 122 23 51 34 71 80
67 154 -4 55 -8 67 -37 97 -41 42 -97 56 -193 49z m137 -39 c86 -40 87 -203 2
-248 -22 -12 -49 -16 -87 -14 -52 3 -55 5 -61 33 -11 50 -10 205 1 226 14 24
96 26 145 3z"/>
<path d="M4375 360 c-11 -4 -33 -22 -50 -39 -26 -28 -30 -40 -33 -104 -5 -125
43 -182 153 -182 49 0 70 5 92 21 41 30 63 80 63 144 0 105 -59 171 -154 169
-28 0 -60 -4 -71 -9z m145 -32 c44 -28 63 -136 36 -202 -20 -47 -51 -66 -112
-66 -63 0 -99 25 -114 78 -28 102 2 178 80 206 21 8 87 -2 110 -16z"/>
<path d="M2490 324 l0 -37 21 27 c18 23 27 26 85 26 l64 0 0 -130 c0 -117 -2
-132 -20 -150 l-20 -20 35 0 35 0 0 160 0 160 -100 0 -100 0 0 -36z"/>
<path d="M2710 200 l0 -160 42 0 c41 0 42 0 20 16 -21 14 -22 22 -22 150 l0
134 56 0 c62 0 94 -12 95 -38 1 -11 4 -8 9 8 16 50 16 50 -95 50 l-105 0 0
-160z"/>
<path d="M2967 352 c23 -15 33 -65 33 -167 0 -96 2 -105 22 -119 31 -22 45
-20 25 2 -14 15 -17 42 -17 155 l0 137 -37 0 c-21 0 -33 -4 -26 -8z"/>
<path d="M3050 258 c1 -114 11 -173 34 -196 20 -20 124 -28 168 -13 22 8 34 8
36 1 2 -5 12 -10 23 -10 18 0 19 9 19 160 l0 160 -37 0 c-34 0 -35 -1 -18 -14
17 -12 20 -30 23 -128 4 -106 3 -114 -18 -133 -32 -29 -137 -34 -170 -7 -24
19 -25 25 -25 137 0 104 2 118 19 131 18 13 17 14 -17 14 l-37 0 0 -102z"/>
<path d="M3350 200 l0 -160 36 0 c32 0 34 2 20 15 -21 21 -29 90 -24 192 4 69
8 88 23 99 17 13 16 14 -18 14 l-37 0 0 -160z"/>
<path d="M3505 344 c18 -13 20 -28 22 -125 2 -108 -6 -156 -30 -171 -7 -4 5
-8 26 -8 l37 0 0 160 0 160 -37 0 c-36 -1 -37 -1 -18 -16z"/>
<path d="M4013 342 c14 -15 17 -41 17 -140 0 -109 -2 -124 -20 -142 l-20 -20
35 0 35 0 0 160 0 160 -32 0 c-29 0 -30 -1 -15 -18z"/>
<path d="M4090 200 l0 -160 37 0 c34 0 35 1 17 14 -17 13 -19 27 -19 146 0
119 2 133 19 146 18 13 17 14 -17 14 l-37 0 0 -160z"/>
<path d="M4265 306 c-52 -52 -54 -151 -4 -205 27 -29 34 -22 14 15 -22 43 -20
141 5 182 23 38 18 41 -15 8z"/>
<path d="M4612 293 c15 -30 19 -51 15 -103 -3 -36 -8 -74 -12 -85 -5 -15 -1
-14 19 8 35 38 37 128 4 177 -32 47 -51 49 -26 3z"/>
<path d="M2167 285 c-10 -48 18 -76 109 -107 71 -25 104 -47 104 -70 0 -24
-43 -48 -86 -48 -39 0 -51 5 -81 35 l-34 34 3 -42 3 -42 59 -7 c82 -10 131 4
152 44 29 56 -2 88 -116 121 -71 21 -90 35 -99 77 l-7 35 -7 -30z"/>
<path d="M3875 293 c14 -33 17 -131 6 -164 -15 -44 -6 -48 18 -8 27 45 27 111
0 155 -22 36 -36 46 -24 17z"/>
</g>
</svg>
